#!OML:ASF I:\Actors\actors\Patient Classification 2\Patient 1\Session 1\actor1.ASF
:FULLY-SPECIFIED
:DEGREES
271
root -0.755592 18.6844 5.18462 -0.662352 -4.75259 -3.69013
lowerback 5.18623 2.12141 -2.60365
upperback 0.867093 2.58837 -3.97198
thorax -1.94478 1.29638 -2.80838
lowerneck -12.5976 -1.94457 -0.956149
upperneck 29.6384 -6.23306 11.7739
head 12.3283 -1.46004 3.75494
rclavicle -2.38542e-015 3.49861e-014
rhumerus 14.0131 46.9637 -68.1013
rradius 71.0415
rwrist 4.21924
rhand 14.1219 -46.004
rfingers 7.12502
rthumb 39.0244 -71.517
lclavicle -2.38542e-015 3.49861e-014
lhumerus -13.3691 -26.7435 85.9671
lradius 76.8683
lwrist 23.18
lhand -11.8972 -39.6905
lfingers 7.12502
lthumb 14.1561 -10.1928
rfemur 6.69757 4.64816 18.1242
rtibia -1.19271e-014
rfoot -14.4699 -10.2846
rtoes -6.95445
lfemur -4.37452 -4.19615 -10.3404
ltibia 23.2729
lfoot -22.6172 14.6397
ltoes -55.0046
272
root -0.754769 18.6851 5.17842 -0.641271 -4.72575 -3.7017
lowerback 5.29383 2.14598 -2.63547
upperback 0.892626 2.61307 -4.03971
thorax -1.97615 1.30871 -2.86658
lowerneck -12.5587 -1.98014 -0.903782
upperneck 29.603 -6.32751 11.8848
head 12.3186 -1.48567 3.77398
rclavicle -7.55382e-015 1.59028e-015
rhumerus 14.1514 46.6885 -68.2623
rradius 70.7228
rwrist 2.5204
rhand 14.101 -46.499
rfingers 7.12502
rthumb 39.0047 -72.0177
lclavicle -7.55382e-015 1.59028e-015
lhumerus -13.3097 -26.9431 85.8236
lradius 77.0024
lwrist 23.1737
lhand -11.8221 -39.5813
lfingers 7.12502
lthumb 14.2284 -10.0886
rfemur 6.64783 4.62065 18.1329
rtibia 4.77083e-015
rfoot -14.4473 -10.308
rtoes -7.1447
lfemur -4.45134 -4.14546 -10.3155
ltibia 23.3141
lfoot -22.5478 14.5914
ltoes -55.0673
273
root -0.753746 18.6858 5.17466 -0.573467 -4.79099 -3.75148
lowerback 5.30792 2.20579 -2.64503
upperback 0.914043 2.69176 -4.06358
thorax -1.95889 1.34791 -2.89141
lowerneck -12.5799 -2.00899 -0.98657
upperneck 29.6268 -6.39605 12.0283
head 12.3481 -1.50664 3.83635
rclavicle 1.11319e-014 -2.38542e-014
rhumerus 14.3273 46.407 -68.3242
rradius 70.3992
rwrist 0.714438
rhand 14.2931 -46.8428
rfingers 7.12502
rthumb 39.1858 -72.3094
lclavicle 1.11319e-014 -2.38542e-014
lhumerus -13.2335 -27.1235 85.77
lradius 77.0851
lwrist 23.156
lhand -11.8145 -39.4573
lfingers 7.12502
lthumb 14.2358 -9.96522
rfemur 6.55025 4.68322 18.1797
rtibia -1.59028e-015
rfoot -14.4496 -10.2884
rtoes -6.90352
lfemur -4.53856 -4.07756 -10.2516
ltibia 23.3499
lfoot -22.5446 14.5831
ltoes -55.0758
274
root -0.752082 18.6865 5.17089 -0.530218 -4.83663 -3.82959
lowerback 5.35417 2.2696 -2.6577
upperback 0.943909 2.77503 -4.05155
thorax -1.95262 1.38946 -2.87888
lowerneck -12.6261 -2.03945 -1.0817
upperneck 29.6581 -6.46113 12.1585
head 12.3854 -1.5277 3.89675
rclavicle 2.18663e-015 -1.27222e-014
rhumerus 14.5402 46.0756 -68.3331
rradius 69.9883
rwrist -0.962461
rhand 14.9627 -47.0292
rfingers 7.12502
rthumb 39.8165 -72.3103
lclavicle 2.18663e-015 -1.27222e-014
lhumerus -13.1739 -27.2651 85.794
lradius 77.1475
lwrist 23.0755
lhand -11.9144 -39.6154
lfingers 7.12502
lthumb 14.1395 -10.1166
rfemur 6.48866 4.727 18.2544
rtibia 3.18055e-015
rfoot -14.465 -10.2445
rtoes -6.25461
lfemur -4.59145 -4.10999 -10.1737
ltibia 23.3828
lfoot -22.6148 14.6252
ltoes -55.0073
275
root -0.750985 18.6869 5.16849 -0.512077 -4.88447 -3.88408
lowerback 5.41282 2.34281 -2.69149
upperback 0.978883 2.86882 -4.05181
thorax -1.94818 1.43632 -2.86854
lowerneck -12.6453 -2.09942 -1.19389
upperneck 29.675 -6.57709 12.3343
head 12.4191 -1.56949 3.97025
rclavicle -4.77083e-014 4.29375e-014
rhumerus 14.6856 45.5469 -68.5081
rradius 69.4419
rwrist -2.38555
rhand 16.4514 -47.6287
rfingers 7.12502
rthumb 41.2161 -72.476
lclavicle -4.77083e-014 4.29375e-014
lhumerus -13.1111 -27.4094 85.8034
lradius 77.2071
lwrist 23.0094
lhand -11.9907 -39.9053
lfingers 7.12502
lthumb 14.066 -10.4013
rfemur 6.45772 4.77387 18.3092
rtibia 8.74653e-015
rfoot -14.4359 -10.2537
rtoes -6.0516
lfemur -4.609 -4.16026 -10.127
ltibia 23.4107
lfoot -22.6888 14.6932
ltoes -54.9327
276
root -0.75029 18.6878 5.1645 -0.480073 -4.89361 -3.88834
lowerback 5.51015 2.40756 -2.78425
upperback 0.97992 2.94363 -4.06491
thorax -2.00328 1.47404 -2.84045
lowerneck -12.6489 -2.14541 -1.28944
upperneck 29.7021 -6.67311 12.4962
head 12.4509 -1.60226 4.03888
rclavicle -3.06128e-014 7.95139e-014
rhumerus 14.803 44.9691 -68.77
rradius 68.8667
rwrist -4.01044
rhand 17.9154 -48.8611
rfingers 7.12502
rthumb 42.5884 -73.2509
lclavicle -3.06128e-014 7.95139e-014
lhumerus -13.128 -27.5894 85.7936
lradius 77.3198
lwrist 23.0074
lhand -11.9622 -40.0826
lfingers 7.12502
lthumb 14.0934 -10.5805
rfemur 6.4062 4.78219 18.3084
rtibia 3.97569e-015
rfoot -14.3836 -10.2841
rtoes -6.18195
lfemur -4.66262 -4.20725 -10.1269
ltibia 23.4248
lfoot -22.6995 14.755
ltoes -54.9325
277
root -0.749603 18.6895 5.15823 -0.415145 -4.8406 -3.8613
lowerback 5.61556 2.44631 -2.90255
upperback 0.958338 2.98016 -4.09105
thorax -2.08807 1.49289 -2.81027
lowerneck -12.6351 -2.17045 -1.23205
upperneck 29.7099 -6.71909 12.481
head 12.4536 -1.61794 4.0164
rclavicle 5.96354e-016 4.13472e-014
rhumerus 15.0053 44.5128 -68.9614
rradius 68.3229
rwrist -6.07831
rhand 18.6285 -50.1501
rfingers 7.12502
rthumb 43.2554 -74.3052
lclavicle 5.96354e-016 4.13472e-014
lhumerus -13.1787 -27.7523 85.7991
lradius 77.4413
lwrist 22.9398
lhand -11.9392 -40.2152
lfingers 7.12502
lthumb 14.1155 -10.7146
rfemur 6.31452 4.72782 18.2686
rtibia -2.78299e-014
rfoot -14.3475 -10.2937
rtoes -6.31518
lfemur -4.77857 -4.28198 -10.155
ltibia 23.4259
lfoot -22.6726 14.8059
ltoes -55.0036
